<svg width="60" height="60" viewBox="0 0 60 60" fill="none" xmlns="http://www.w3.org/2000/svg">
<g clip-path="url(#clip0_32_4322)">
<path d="M5 11.2501C5.02787 10.3763 5.23241 9.51714 5.6013 8.72449C5.97018 7.93184 6.49578 7.22211 7.14638 6.63808C7.79698 6.05406 8.55913 5.60784 9.38685 5.32633C10.2146 5.04483 11.0907 4.93386 11.9625 5.00013C12.6255 5.00013 13.2614 4.73674 13.7303 4.2679C14.1991 3.79906 14.4625 3.16317 14.4625 2.50013C14.4625 1.83709 14.1991 1.2012 13.7303 0.732362C13.2614 0.263521 12.6255 0.000128748 11.9625 0.000128748C10.4347 -0.0617022 8.90982 0.181783 7.4772 0.716339C6.04459 1.25089 4.73296 2.06579 3.61907 3.11334C2.50517 4.16089 1.61137 5.42007 0.989952 6.8172C0.368538 8.21434 0.0319906 9.72137 0 11.2501C0 11.9132 0.263392 12.5491 0.732233 13.0179C1.20107 13.4867 1.83696 13.7501 2.5 13.7501C3.16304 13.7501 3.79893 13.4867 4.26777 13.0179C4.73661 12.5491 5 11.9132 5 11.2501Z" fill="white"/>
<path d="M50.7976 50.44C54.1061 46.6204 56.2961 41.9616 57.1261 36.977C57.9562 31.9924 57.3943 26.8754 55.5022 22.1897C53.6101 17.504 50.4613 13.4316 46.4027 10.4211C42.3441 7.41051 37.5332 5.57872 32.5001 5.1275V2.5C32.5001 1.83696 32.2367 1.20107 31.7679 0.732233C31.2991 0.263392 30.6632 0 30.0001 0C29.3371 0 28.7012 0.263392 28.2324 0.732233C27.7635 1.20107 27.5001 1.83696 27.5001 2.5V5.1275C22.4671 5.57872 17.6562 7.41051 13.5976 10.4211C9.53901 13.4316 6.3902 17.504 4.4981 22.1897C2.60599 26.8754 2.04403 31.9924 2.87412 36.977C3.70421 41.9616 5.89414 46.6204 9.20263 50.44C7.89606 51.0864 6.80421 52.0967 6.0586 53.3493C5.31299 54.6019 4.94541 56.0433 5.00013 57.5C5.00013 58.163 5.26353 58.7989 5.73237 59.2678C6.20121 59.7366 6.83709 60 7.50013 60C8.16318 60 8.79906 59.7366 9.2679 59.2678C9.73674 58.7989 10.0001 58.163 10.0001 57.5C9.97936 56.7294 10.256 55.9804 10.7727 55.4083C11.2894 54.8363 12.0064 54.485 12.7751 54.4275C12.9471 54.3948 13.1148 54.3428 13.2751 54.2725C18.064 57.9868 23.9522 60.0026 30.0126 60.0026C36.073 60.0026 41.9613 57.9868 46.7501 54.2725C46.8965 54.3399 47.0488 54.3935 47.2051 54.4325C47.9765 54.4851 48.6978 54.8335 49.2186 55.405C49.7393 55.9765 50.0193 56.7271 50.0001 57.5C50.0001 58.163 50.2635 58.7989 50.7324 59.2678C51.2012 59.7366 51.8371 60 52.5001 60C53.1632 60 53.7991 59.7366 54.2679 59.2678C54.7367 58.7989 55.0001 58.163 55.0001 57.5C55.0549 56.0433 54.6873 54.6019 53.9417 53.3493C53.1961 52.0967 52.1042 51.0864 50.7976 50.44V50.44ZM39.2676 39.2675C38.7988 39.7362 38.163 39.9995 37.5001 39.9995C36.8372 39.9995 36.2015 39.7362 35.7326 39.2675L28.2326 31.7675C27.7638 31.2988 27.5003 30.663 27.5001 30V17.5C27.5001 16.837 27.7635 16.2011 28.2324 15.7322C28.7012 15.2634 29.3371 15 30.0001 15C30.6632 15 31.2991 15.2634 31.7679 15.7322C32.2367 16.2011 32.5001 16.837 32.5001 17.5V28.965L39.2676 35.7325C39.7363 36.2013 39.9996 36.8371 39.9996 37.5C39.9996 38.1629 39.7363 38.7987 39.2676 39.2675V39.2675Z" fill="url(#paint0_linear_32_4322)"/>
</g>
<defs>
<linearGradient id="paint0_linear_32_4322" x1="9.95648" y1="8.47673e-07" x2="70.2324" y2="23.2229" gradientUnits="userSpaceOnUse">
<stop stop-color="#C847F4"/>
<stop offset="1" stop-color="#6E54F7"/>
</linearGradient>
<clipPath id="clip0_32_4322">
<rect width="60" height="60" fill="white"/>
</clipPath>
</defs>
</svg>
