<svg width="25" height="25" viewBox="0 0 25 25" fill="none" xmlns="http://www.w3.org/2000/svg">
<path d="M16.25 10.0251L11.664 5.43913C11.3827 5.15786 11.0011 4.99991 10.6032 5C10.2053 5.00009 9.82381 5.15823 9.54255 5.43963C9.26129 5.72102 9.10333 6.10262 9.10342 6.50048C9.10352 6.89834 9.26166 7.27986 9.54305 7.56113L14.129 12.1461C14.1756 12.1926 14.2125 12.2477 14.2378 12.3085C14.263 12.3692 14.2759 12.4344 14.2759 12.5001C14.2759 12.5659 14.263 12.631 14.2378 12.6918C14.2125 12.7525 14.1756 12.8077 14.129 12.8541L9.54305 17.4391C9.26166 17.7204 9.10352 18.1019 9.10342 18.4998C9.10333 18.8976 9.26129 19.2792 9.54255 19.5606C9.82381 19.842 10.2053 20.0002 10.6032 20.0003C11.0011 20.0003 11.3827 19.8424 11.664 19.5611L16.25 14.9751C16.9053 14.3181 17.2732 13.428 17.2732 12.5001C17.2732 11.5722 16.9053 10.6822 16.25 10.0251Z" fill="white"/>
</svg>
