<svg width="31" height="32" viewBox="0 0 31 32" fill="none" xmlns="http://www.w3.org/2000/svg">
<g clip-path="url(#clip0_32_3258)">
<path d="M7.13559 19.3378L6.07896 23.4961L2.21702 23.5822C1.06286 21.3255 0.408203 18.7436 0.408203 15.9999C0.408203 13.3467 1.02029 10.8447 2.10526 8.6416H2.10609L5.54431 9.3061L7.05045 12.9089C6.73522 13.8777 6.56341 14.9177 6.56341 15.9999C6.56352 17.1743 6.76534 18.2997 7.13559 19.3378Z" fill="#FBBB00"/>
<path d="M30.4985 13.011C30.6728 13.9789 30.7637 14.9784 30.7637 16C30.7637 17.1455 30.6494 18.2629 30.4318 19.3407C29.693 23.0084 27.7624 26.211 25.0879 28.4774L25.0871 28.4765L20.7565 28.2436L20.1436 24.2101C21.9182 23.113 23.305 21.396 24.0356 19.3407H15.9197V13.011H24.154H30.4985Z" fill="#518EF8"/>
<path d="M25.0871 28.4763L25.0879 28.4772C22.4869 30.6811 19.1828 31.9998 15.586 31.9998C9.806 31.9998 4.78071 28.5941 2.21716 23.5823L7.13574 19.3379C8.41748 22.944 11.7174 25.5111 15.586 25.5111C17.2489 25.5111 18.8067 25.0372 20.1435 24.21L25.0871 28.4763Z" fill="#28B446"/>
<path d="M25.2738 3.6835L20.3569 7.927C18.9734 7.01538 17.338 6.48875 15.586 6.48875C11.6298 6.48875 8.26814 9.17356 7.0506 12.909L2.10618 8.64175H2.10535C4.63136 3.50769 9.72004 0 15.586 0C19.2686 0 22.6453 1.38287 25.2738 3.6835Z" fill="#F14336"/>
</g>
<defs>
<clipPath id="clip0_32_3258">
<rect width="30.3554" height="32" fill="white" transform="translate(0.408203)"/>
</clipPath>
</defs>
</svg>
