<svg width="1418" height="293" viewBox="0 0 1418 293" fill="none" xmlns="http://www.w3.org/2000/svg">
<path d="M0.360107 144.723C14.8189 107.157 50.5725 90.6967 82.9702 77.7203C107.828 67.8744 132.685 57.877 158.537 54.9485C170.966 53.5347 183.726 53.7872 195.824 50.4547C215.834 45.1026 233.483 30.7628 252.996 23.0376C301.468 3.90117 355.368 27.5314 404.876 12.5858C417.305 8.84941 429.195 2.48747 441.914 1.17468C470.127 -2.30926 496.642 16.9786 524.524 23.3911C548.304 28.8442 572.913 24.8048 597.025 27.6324C621.137 30.4599 646.989 42.477 657.678 68.9852C669.029 74.4888 685.56 73.6304 697.74 72.4186C709.804 70.415 721.738 67.3781 733.452 63.3301C804.13 43.8403 878.455 71.7118 950.169 58.281C963.941 54.8598 977.874 52.4821 991.888 51.1616C1007.55 50.7072 1023 54.7465 1038.45 58.0285C1079.05 66.6704 1120.3 69.8368 1161.46 67.4704C1186.32 66.1071 1215.32 64.8449 1230.65 88.4751C1288.65 78.3767 1348.01 111.853 1405.19 127C1433.94 134.625 1463.44 137.099 1492.81 139.118C1512.74 140.633 1532.87 142.148 1552.59 138.26C1568.58 135.079 1583.91 128.162 1599.66 123.718C1643.18 110.853 1688.82 113.411 1731.19 131.09C1777.26 150.479 1822.75 164.263 1865.43 192.943C1887.71 208.09 1911.78 227.58 1916.01 258.128C1917.06 263.715 1916.48 269.574 1914.35 274.689C1911.25 279.855 1906.91 283.719 1901.92 285.747C1856.78 309.695 1809.51 327.181 1761.06 337.854C1716.86 347.599 1671.99 351.639 1627.17 355.678L1467.66 369.917C1402.66 375.774 1337.66 381.58 1272.61 386.377C1239.92 389.548 1207.1 390.223 1174.34 388.397C1138.46 385.569 1103.04 376.985 1067.46 370.775C954.395 351.033 839.594 354.921 725.456 358.859C594.539 363.353 466.067 320.94 340.163 277.618L238.744 242.728C157.904 215.269 78.3291 182.554 0.360107 144.723V144.723Z" fill="#7D34F3"/>
</svg>
