<svg width="277" height="479" viewBox="0 0 277 479" fill="none" xmlns="http://www.w3.org/2000/svg">
<path d="M224.803 101.562C230.834 97.6645 233.85 90.1635 238.206 84.3538C240.082 82.0741 242.159 80.015 243.969 77.6617C245.899 75.3665 247.18 72.5049 247.655 69.4253C248.056 68.0154 248.643 66.6775 249.397 65.4541C250.626 62.3767 252.06 59.4027 253.686 56.5558C255.273 53.9568 257.043 51.498 258.98 49.2019C262.369 43.2527 265.434 37.0892 268.161 30.7434C269.813 28.7189 270.741 26.1067 270.774 23.3895C270.439 21.1833 272.383 19.3447 273.321 17.3592C274.11 15.6284 274.48 13.7034 274.393 11.7702C275.337 9.7562 276.079 7.6356 276.605 5.44577C276.705 5.06132 276.705 4.65356 276.605 4.26911C276.605 4.26911 276.069 3.5337 275.734 3.68077C275.399 3.82785 275.734 2.35703 275.734 1.69517C275.734 1.03331 275.734 1.25392 275.734 1.10684C275.56 0.963634 275.348 0.88623 275.13 0.88623C274.913 0.88623 274.701 0.963634 274.527 1.10684C274.124 1.29236 273.776 1.59811 273.522 1.98939C273.171 1.89419 272.803 1.92089 272.467 2.06581C272.13 2.21073 271.843 2.46672 271.646 2.79833C271.242 3.43794 270.967 4.16513 270.841 4.93094L269.836 9.34336C269.549 11.0128 268.981 12.6088 268.161 14.0499C267.876 14.3959 267.649 14.7942 267.491 15.2266C267.426 15.5908 267.426 15.9654 267.491 16.3296C267.396 17.5526 266.95 18.7111 266.217 19.6389C265.882 16.4031 265.547 13.1674 265.145 9.93169C265.147 9.67099 265.101 9.41252 265.009 9.17224C264.917 8.93195 264.781 8.71491 264.609 8.53442C264.457 8.45061 264.29 8.40324 264.119 8.39539C263.949 8.38754 263.779 8.41937 263.621 8.48886C263.462 8.55835 263.32 8.66385 263.201 8.79846C263.083 8.93307 262.992 9.09369 262.934 9.26975C262.735 10.0139 262.735 10.8054 262.934 11.5496C263.37 14.6937 263.37 17.892 262.934 21.0361C262.934 21.7715 262.532 22.654 261.862 22.654C261.191 22.654 261.124 22.2127 260.722 21.9186C260.099 21.6052 259.398 21.5291 258.73 21.7022C258.062 21.8754 257.466 22.288 257.037 22.8746C256.259 24.1054 255.543 25.3821 254.892 26.6987C254.155 27.9489 253.083 28.9049 252.345 30.0815C251.671 31.1391 251.204 32.3387 250.973 33.6044C250.743 34.8702 250.754 36.1746 251.005 37.4355C251.005 38.465 251.407 39.6417 251.676 40.7448C244.438 49.5696 237.468 58.762 229.628 66.925C226.701 69.5974 224.248 72.838 222.39 76.485C220.086 81.7481 216.518 86.2227 212.07 89.4281C211.619 89.7735 211.079 89.9537 210.529 89.9429C209.456 89.9429 208.384 88.3985 207.647 89.2075C207.405 89.5441 207.264 89.9555 207.245 90.3841C206.838 91.274 206.18 91.996 205.369 92.4432C203.525 93.784 201.818 95.3372 200.276 97.0763C199.139 98.4758 198.211 100.064 197.528 101.783C193.976 104.283 192.435 109.137 189.218 112.152C186.002 115.167 183.79 115.388 181.512 117.667C179.634 119.664 178.329 122.221 177.759 125.021C177.66 125.658 177.431 126.261 177.089 126.786C176.787 127.102 176.449 127.374 176.084 127.595C173.939 128.845 171.862 130.022 169.382 131.125C168.824 130.691 168.193 130.383 167.526 130.219C166.859 130.055 166.168 130.038 165.495 130.169C164.155 130.684 163.351 132.449 162.011 132.816C161.609 132.781 161.206 132.781 160.804 132.816C160.067 132.816 159.531 133.993 158.727 133.846C158.448 133.766 158.19 133.618 157.97 133.415C157.749 133.212 157.573 132.957 157.454 132.669C157.16 132.232 156.954 131.73 156.85 131.199C156.85 129.581 158.258 128.625 159.196 127.448C159.846 126.671 160.266 125.697 160.402 124.654C160.554 124.856 160.751 125.01 160.975 125.101C161.199 125.191 161.441 125.215 161.675 125.168C161.997 125.071 162.295 124.895 162.547 124.654C163.657 123.684 164.398 122.294 164.624 120.756C164.724 120.008 164.66 119.245 164.439 118.529C164.218 117.813 163.845 117.165 163.351 116.638C163.378 114.177 163.221 111.717 162.882 109.284C162.228 104.614 160.724 100.137 158.459 96.1202C157.368 93.5451 156.067 91.0837 154.572 88.7663C153.048 87.3033 151.796 85.5303 150.886 83.545C150.886 82.6625 150.484 81.5592 149.747 81.0444C149.01 80.5297 147.468 81.0444 146.262 81.4857H144.587C142.559 81.8724 140.636 82.7519 138.958 84.0596C134.456 87.3768 130.68 91.7469 127.9 96.8557C125.859 101.175 124.435 105.813 123.678 110.608C123.641 111.102 123.452 111.569 123.142 111.931L122.271 112.446C121.899 112.888 121.685 113.463 121.668 114.064C121.454 116.806 122.016 119.553 123.276 121.932C124.416 121.932 125.354 122.889 125.622 124.139C125.772 125.376 126.064 126.586 126.493 127.742C127.096 128.772 126.493 130.169 126.493 131.272C126.493 132.375 125.823 131.272 125.689 130.684C125.555 130.095 125.22 129.949 124.885 130.169C124.55 130.39 124.885 130.537 124.885 130.757C124.885 130.978 123.879 131.861 123.209 132.228C122.225 132.851 121.45 133.805 120.998 134.949C120.663 134.183 120.209 133.486 119.657 132.89C118.489 131.234 117.645 129.331 117.178 127.301C116.709 125.389 114.765 124.286 113.157 123.477C110.169 122.312 107.064 121.546 103.909 121.197C103.155 121.055 102.385 121.055 101.631 121.197C100.826 121.197 100.156 122.006 99.3522 122.153C98.6194 122.255 97.8753 122.183 97.1701 121.942C96.4648 121.701 95.815 121.296 95.2644 120.756C94.02 119.288 92.4833 118.156 90.7744 117.447L86.8877 112.446C86.4489 111.895 86.0875 111.275 85.8154 110.608V109.284C85.1232 107.015 83.7229 105.088 81.8616 103.842C81.3915 103.498 80.9889 103.054 80.6781 102.536C80.3673 102.018 80.1544 101.437 80.0521 100.827C79.2541 99.7507 78.276 98.8522 77.1705 98.1793C76.5004 97.7381 75.6962 97.5175 75.026 97.0763C74.3817 96.6508 73.8312 96.0741 73.4141 95.3875C72.9969 94.7009 72.7237 93.9214 72.6136 93.1051C72.6136 92.7374 72.6136 92.3696 72.6136 92.149L72.1445 91.7814C70.4597 90.9494 68.9182 89.8049 67.5875 88.3984C66.5915 87.4277 65.693 86.3429 64.907 85.1627C64.5849 84.5801 64.3154 83.9643 64.1027 83.3242C63.9803 83.01 63.7971 82.7289 63.5656 82.5003C63.3342 82.2717 63.0601 82.1011 62.7625 82.0005H61.7573C60.8816 81.7321 60.1358 81.0988 59.6797 80.2356C55.0382 74.2633 49.592 69.1048 43.5295 64.9392C42.0637 63.7494 40.7159 62.3938 39.5086 60.8946L34.0134 54.4231C33.3155 53.5652 32.5282 52.8001 31.6678 52.1434C31.0648 51.7486 30.5222 51.2524 30.0596 50.6727C29.6875 50.1763 29.4137 49.6002 29.2554 48.9813L28.1161 45.5985C27.7818 44.7078 27.5783 43.7646 27.513 42.8039C27.6107 41.9445 27.8136 41.1035 28.1161 40.3036L28.9873 37.7297C29.3454 36.4791 29.4104 35.1496 29.1761 33.8642C28.9418 32.5788 28.4158 31.379 27.647 30.3757C27.3779 29.9762 27.1318 29.5586 26.9099 29.1256C26.6382 27.8435 26.6382 26.5101 26.9099 25.228C26.9099 23.9042 26.5079 22.3599 25.3016 22.0657C24.8602 22.0206 24.4151 22.083 23.9981 22.2483C23.5811 22.4135 23.2024 22.6776 22.889 23.0217C21.8838 23.8307 20.8115 25.0073 21.1466 26.4045C21.4816 27.8018 22.4869 28.3165 22.6209 29.4932C21.3642 29.6317 20.096 29.4291 18.9274 28.9034C17.7589 28.3776 16.7258 27.5448 15.9195 26.4781C15.423 25.559 14.7886 24.7385 14.0431 24.0513C12.6063 22.6942 11.3639 21.1076 10.3574 19.3448C9.89608 18.7638 9.4707 18.1496 9.0841 17.5063C8.76202 16.9237 8.49272 16.3079 8.27996 15.6678C7.61897 13.992 6.7384 12.4312 5.66631 11.0347C4.86214 9.93165 4.19209 8.68146 3.45493 7.57837C3.23416 7.13227 2.92823 6.74366 2.55815 6.43907C2.18807 6.13449 1.7625 5.92116 1.31043 5.81349C1.1644 5.78836 1.01516 5.8014 0.874616 5.85164C0.734069 5.90188 0.606314 5.98785 0.501792 6.10255C0.39727 6.21725 0.318934 6.35744 0.273149 6.51168C0.227364 6.66591 0.215276 6.82979 0.238178 6.99004C0.113435 8.46225 0.296918 9.94636 0.774406 11.329L1.64562 13.5351C1.89465 14.2729 2.0742 15.0368 2.18165 15.8148L3.05286 19.8595C3.50223 21.7927 4.08476 23.6857 4.7953 25.5221C5.4655 27.5578 5.87151 29.6867 6.0015 31.8465C5.89862 32.3303 5.89862 32.8335 6.0015 33.3173C6.23416 33.9037 6.5766 34.4299 7.00668 34.8616C7.89889 35.9011 8.66473 37.0627 9.28513 38.3179C11.0275 41.7007 12.703 45.2307 14.6464 48.4664C17.2265 52.913 20.1646 57.0971 23.4252 60.9683C28.4485 67.8042 32.8058 75.1985 36.426 83.0302C39.5109 88.095 43.3112 92.5881 47.6843 96.3408C47.8647 96.4587 48.0068 96.6354 48.0909 96.8465C48.175 97.0575 48.197 97.2922 48.1535 97.5175C48.1535 97.5175 47.5503 97.8852 47.2823 98.1793C47.0142 98.4735 47.2823 99.4294 47.2823 99.9442C47.7945 100.33 48.332 100.675 48.8905 100.974C49.748 101.538 50.4024 102.409 50.744 103.44C51.0857 104.471 51.0938 105.6 50.7669 106.636C50.7669 107.372 50.0967 108.034 50.2978 108.769C50.4988 109.504 52.1072 110.019 53.2464 109.798L56.0611 109.284C55.525 110.019 56.061 110.902 56.7982 111.49C57.5353 112.078 58.2725 112.52 58.5406 113.402C58.8087 114.285 58.5406 115.093 58.5406 115.902C58.5406 116.711 59.6129 117.447 60.082 118.256C60.3325 118.756 60.5561 119.271 60.752 119.8L63.6337 128.625C64.966 132.442 66.8933 135.976 69.3298 139.067C70.1869 140.174 70.9922 141.327 71.7424 142.524C72.3455 143.7 72.8146 144.877 73.3507 146.054C75.1284 149.166 77.3977 151.905 80.0521 154.143C81.8615 155.908 84.274 157.746 86.7535 156.717C85.8823 164.512 84.5422 172.16 83.738 179.882C83.1698 183.993 82.9676 188.156 83.1347 192.31C83.1551 197.704 82.7742 203.09 81.9956 208.415C81.7507 213.713 81.2361 218.992 80.4542 224.226C79.8112 227.061 79.5627 229.987 79.7171 232.904C80.3872 240.258 76.4333 246.803 74.825 253.716C74.7271 253.959 74.6767 254.222 74.6767 254.488C74.6767 254.754 74.7271 255.017 74.825 255.26C74.9749 255.511 75.183 255.715 75.4281 255.848C78.4531 257.734 81.2648 260.005 83.8049 262.614C87.3566 266.144 91.3105 269.306 95.1303 272.542C97.3047 274.725 99.8899 276.357 102.703 277.322C102.528 281.723 101.807 286.078 100.558 290.265C99.8883 292.545 99.1513 294.677 98.6151 296.957C97.8695 300.801 97.4876 304.72 97.4758 308.65C97.4758 312.106 96.2696 315.636 96.0686 319.093C95.8675 322.549 96.0686 325.785 96.0686 329.094V339.904C96.0686 341.669 95.4655 343.875 95.4655 345.64C96.0655 351.007 96.3342 356.413 96.2696 361.819C95.8683 368.977 96.0028 376.159 96.6717 383.293C96.5365 385.521 96.5365 387.757 96.6717 389.985C97.0067 392.117 97.5427 394.177 98.0118 396.236C98.7357 399.615 99.1621 403.063 99.2851 406.531C97.2292 408.371 95.8877 411 95.5323 413.885C95.0434 416.82 94.8189 419.8 94.8622 422.783C94.8622 429.034 93.924 435.212 93.1868 441.389C91.8131 451.876 91.8131 462.524 93.1868 473.011C93.924 477.644 94.1921 482.718 94.7282 487.719C95.6566 491.75 95.1283 496.019 93.2539 499.632C92.7848 500.368 92.1147 500.956 91.6456 501.692C90.8162 503.348 90.3138 505.177 90.1713 507.06C89.3651 510.31 89.3651 513.738 90.1713 516.988C90.3124 517.602 90.2479 518.252 89.9897 518.819C89.7315 519.385 89.2966 519.832 88.7641 520.076C88.3075 520.328 87.8374 520.549 87.3566 520.738C87.138 520.847 86.9454 521.009 86.7942 521.214C86.643 521.418 86.5372 521.658 86.4854 521.915C86.0793 522.379 85.7724 522.937 85.587 523.547C85.4015 524.158 85.3423 524.806 85.4133 525.445C85.4133 526.622 85.8154 527.798 85.8154 528.975C85.5448 529.832 85.5448 530.765 85.8154 531.622C86.0965 531.955 86.4112 532.251 86.7535 532.505C89.0889 534.198 91.1882 536.254 92.9858 538.608C95.8674 542.359 101.43 541.477 105.853 541.55C107.579 541.721 109.318 541.47 110.946 540.815C111.203 540.74 111.435 540.587 111.616 540.374C112.018 539.785 111.616 538.903 111.616 538.167C111.616 537.432 112.755 536.035 112.889 534.784C112.95 534.075 112.95 533.361 112.889 532.652C112.833 532.02 112.927 531.383 113.162 530.804C113.397 530.224 113.765 529.72 114.229 529.343C114.229 527.504 114.229 525.666 114.229 523.827C114.355 522.855 114.24 521.864 113.894 520.959C114.229 520.076 115.168 519.635 115.905 519.047C116.748 518.372 117.437 517.491 117.915 516.473C119.275 513.786 120.055 510.792 120.194 507.722C120.124 506.792 120.124 505.857 120.194 504.927C120.274 504.405 120.385 503.889 120.529 503.383C120.76 501.923 120.76 500.43 120.529 498.971C119.786 495.237 118.846 491.554 117.714 487.94C117.533 486.204 117.242 484.483 116.843 482.792C114.967 477.056 118.451 470.731 119.59 464.922C120.73 459.112 121.065 454.553 121.802 449.405C121.999 443.417 122.536 437.449 123.41 431.535C123.916 429.25 124.119 426.897 124.013 424.549C123.7 421.456 124.164 418.328 125.354 415.503C127.4 410.218 128.139 404.435 127.498 398.736C127.93 392.406 128.758 386.115 129.978 379.91C130.983 373.291 131.519 366.673 132.725 360.054C133.164 356.742 133.836 353.472 134.736 350.273C135.108 349.292 135.422 348.285 135.674 347.258C135.773 346.404 135.773 345.539 135.674 344.684C136.107 340.338 136.937 336.052 138.153 331.888C138.409 336.622 139.243 341.297 140.633 345.787C140.633 346.743 141.303 347.773 141.504 348.802C141.705 349.832 141.839 351.009 142.107 352.112C143.27 355.265 143.862 358.638 143.85 362.04C145.569 367.157 146.519 372.546 146.664 377.998L147.669 389.691C148.34 397.633 148.34 405.428 149.01 413.444C149.449 418.216 150.919 422.805 153.299 426.828C156.247 431.829 154.438 438.668 154.572 444.551C155.05 450.835 156.128 457.046 157.789 463.083C159.129 469.849 159.665 476.394 160.67 483.233C160.738 483.868 160.738 484.51 160.67 485.145C160.553 485.801 160.374 486.442 160.134 487.057C159.261 489.449 158.544 491.907 157.99 494.411C157.52 495.657 156.888 496.821 156.113 497.868C155.414 499.443 155.113 501.195 155.242 502.942C155.175 504.191 155.175 505.443 155.242 506.692C155.589 508.728 156.175 510.705 156.984 512.576C157.22 513.282 157.611 513.914 158.124 514.414C158.371 514.662 158.693 514.8 159.028 514.8C159.363 514.8 159.686 514.662 159.933 514.414C159.933 513.973 159.933 513.311 160.737 513.164C161.11 513.523 161.409 513.964 161.617 514.458C161.825 514.952 161.936 515.488 161.943 516.032C161.95 517.113 162.204 518.175 162.681 519.12C163.567 520.891 163.896 522.933 163.619 524.93C163.453 527.034 163.453 529.15 163.619 531.254C163.884 532.935 164.357 534.568 165.026 536.108C165.364 537.238 165.964 538.252 166.768 539.05C167.625 539.596 168.593 539.899 169.583 539.932L173.202 540.3C175.097 540.483 177.003 540.483 178.898 540.3C180.815 540.193 182.618 539.269 183.924 537.726C184.424 537.083 184.872 536.394 185.264 535.667C186.488 533.887 188.244 532.638 190.223 532.137C190.961 532.137 190.894 530.887 191.095 530.004C191.296 529.122 191.095 528.239 191.095 527.357C191.297 526.439 191.297 525.481 191.095 524.562C190.746 523.622 190.194 522.789 189.486 522.136C189.037 521.569 188.518 521.074 187.945 520.665C187.945 520.665 187.543 520.665 187.476 520.665C187.409 520.425 187.409 520.169 187.476 519.929V518.017C187.31 515.84 187.31 513.65 187.476 511.472C187.643 510.5 187.643 509.503 187.476 508.531C187.148 507.672 186.879 506.787 186.672 505.883C186.704 505.467 186.704 505.049 186.672 504.633C186.614 503.955 186.327 503.325 185.868 502.868C185.596 501.957 185.394 501.022 185.264 500.074V497.794L184.661 487.351C184.661 485.292 183.522 483.38 183.924 481.395C184.181 480.741 184.34 480.045 184.393 479.335C184.393 478.968 184.393 478.6 184.058 478.159C183.991 477.82 183.991 477.469 184.058 477.129C184.528 475.603 184.528 473.949 184.058 472.423C183.589 471.393 184.058 469.996 184.594 468.893C184.759 468.388 184.893 467.872 184.996 467.348C185.083 465.87 185.239 464.397 185.465 462.936C185.903 460.088 185.903 457.18 185.465 454.332C185.465 452.861 185.465 451.317 185.465 449.773C185.291 447.895 185.023 446.029 184.661 444.183C184.661 442.86 184.661 441.463 184.661 440.065C183.924 435.947 184.192 432.049 183.321 427.931C183.176 427.16 182.928 426.416 182.584 425.725C182.218 425.177 181.815 424.661 181.378 424.181C179.772 422.15 178.954 419.51 179.099 416.827C179.209 415.241 179.596 413.693 180.238 412.267C180.644 411.578 180.907 410.8 181.012 409.987C181.116 409.174 181.058 408.346 180.841 407.561C180.171 406.017 178.429 405.134 178.228 403.516C178.027 401.898 179.434 400.427 179.3 398.81C179.433 397.662 179.433 396.501 179.3 395.353C179.15 394.803 178.971 394.263 178.764 393.735C178.396 391.721 178.396 389.646 178.764 387.631L179.166 383.807C179.452 378.872 180.012 373.96 180.841 369.1C181.492 364.576 181.805 360.001 181.78 355.421C181.86 353.152 182.29 350.914 183.053 348.802C186.136 341.449 182.249 332.697 182.316 324.755C181.438 319.912 181.012 314.984 181.043 310.047C181.512 307.767 180.104 305.561 179.568 303.281C178.959 301.291 178.844 299.159 179.233 297.104C179.769 295.266 179.233 293.501 179.233 291.515C179.366 291.111 179.366 290.669 179.233 290.265C179.083 290.014 178.875 289.811 178.63 289.677C178.297 289.296 178.037 288.846 177.864 288.354C177.692 287.861 177.61 287.336 177.625 286.809C177.625 285.632 177.625 284.529 177.625 283.352C177.627 281.31 177.492 279.27 177.223 277.249C177.179 275.76 176.63 274.343 175.681 273.277C175.357 273.032 174.993 272.857 174.609 272.762C174.609 272.762 174.14 272.763 174.14 272.395C174.367 270.994 174.875 269.666 175.629 268.508C176.382 267.351 177.362 266.392 178.496 265.703L179.635 264.967C180.356 264.177 180.806 263.138 180.909 262.026C181.042 260.928 181.042 259.815 180.909 258.716C180.373 255.359 180.373 251.925 180.909 248.568C181.654 242.188 181.359 235.714 180.037 229.448C179.704 221.863 180.176 214.262 181.445 206.797C182.115 200.179 185.533 193.781 184.661 187.236C184.015 181.925 184.568 176.521 186.27 171.498C186.519 169.995 186.632 168.467 186.605 166.939V165.983C186.767 165.618 186.995 165.293 187.275 165.027L189.084 162.674C189.955 161.497 191.43 160.615 192.167 159.291C192.904 157.967 192.904 157.673 193.373 156.937C193.842 156.202 195.652 154.584 196.657 153.187C197.662 151.79 198.667 148.407 200.678 147.157C201.886 143.595 203.81 140.378 206.307 137.744C208.035 136.256 209.529 134.467 210.73 132.449C211.542 130.106 211.796 127.575 211.467 125.095C212.343 125.078 213.2 124.82 213.961 124.345C214.723 123.869 215.363 123.192 215.823 122.374C216.711 120.773 217.218 118.952 217.297 117.079C217.297 115.829 217.632 114.284 218.704 113.917C219.777 113.549 220.112 113.917 220.715 113.917C220.926 113.76 221.108 113.56 221.251 113.328L224.066 109.21C224.878 107.98 225.553 106.646 226.076 105.239C226.244 104.615 226.244 103.951 226.076 103.327C225.674 103.253 225.205 101.709 224.803 101.562Z" fill="#021D48"/>
</svg>
