<svg width="60" height="60" viewBox="0 0 60 60" fill="none" xmlns="http://www.w3.org/2000/svg">
<path d="M41.875 8.9V5C41.875 3.975 41.025 3.125 40 3.125C38.975 3.125 38.125 3.975 38.125 5V8.75H21.875V5C21.875 3.975 21.025 3.125 20 3.125C18.975 3.125 18.125 3.975 18.125 5V8.9C11.375 9.525 8.10002 13.55 7.60002 19.525C7.55002 20.25 8.15002 20.85 8.85002 20.85H51.15C51.875 20.85 52.475 20.225 52.4 19.525C51.9 13.55 48.625 9.525 41.875 8.9Z" fill="white"/>
<path d="M50 24.6001H10C8.625 24.6001 7.5 25.7251 7.5 27.1001V42.5001C7.5 50.0001 11.25 55.0001 20 55.0001H40C48.75 55.0001 52.5 50.0001 52.5 42.5001V27.1001C52.5 25.7251 51.375 24.6001 50 24.6001ZM23.025 45.5251C22.9 45.6251 22.775 45.7501 22.65 45.8251C22.5 45.9251 22.35 46.0001 22.2 46.0501C22.05 46.1251 21.9 46.1751 21.75 46.2001C21.575 46.2251 21.425 46.2501 21.25 46.2501C20.925 46.2501 20.6 46.1751 20.3 46.0501C19.975 45.9251 19.725 45.7501 19.475 45.5251C19.025 45.0501 18.75 44.4001 18.75 43.7501C18.75 43.1001 19.025 42.4501 19.475 41.9751C19.725 41.7501 19.975 41.5751 20.3 41.4501C20.75 41.2501 21.25 41.2001 21.75 41.3001C21.9 41.3251 22.05 41.3751 22.2 41.4501C22.35 41.5001 22.5 41.5751 22.65 41.6751C22.775 41.7751 22.9 41.8751 23.025 41.9751C23.475 42.4501 23.75 43.1001 23.75 43.7501C23.75 44.4001 23.475 45.0501 23.025 45.5251ZM23.025 36.7751C22.55 37.2251 21.9 37.5001 21.25 37.5001C20.6 37.5001 19.95 37.2251 19.475 36.7751C19.025 36.3001 18.75 35.6501 18.75 35.0001C18.75 34.3501 19.025 33.7001 19.475 33.2251C20.175 32.5251 21.275 32.3001 22.2 32.7001C22.525 32.8251 22.8 33.0001 23.025 33.2251C23.475 33.7001 23.75 34.3501 23.75 35.0001C23.75 35.6501 23.475 36.3001 23.025 36.7751ZM31.775 45.5251C31.3 45.9751 30.65 46.2501 30 46.2501C29.35 46.2501 28.7 45.9751 28.225 45.5251C27.775 45.0501 27.5 44.4001 27.5 43.7501C27.5 43.1001 27.775 42.4501 28.225 41.9751C29.15 41.0501 30.85 41.0501 31.775 41.9751C32.225 42.4501 32.5 43.1001 32.5 43.7501C32.5 44.4001 32.225 45.0501 31.775 45.5251ZM31.775 36.7751C31.65 36.8751 31.525 36.9751 31.4 37.0751C31.25 37.1751 31.1 37.2501 30.95 37.3001C30.8 37.3751 30.65 37.4251 30.5 37.4501C30.325 37.4751 30.175 37.5001 30 37.5001C29.35 37.5001 28.7 37.2251 28.225 36.7751C27.775 36.3001 27.5 35.6501 27.5 35.0001C27.5 34.3501 27.775 33.7001 28.225 33.2251C28.45 33.0001 28.725 32.8251 29.05 32.7001C29.975 32.3001 31.075 32.5251 31.775 33.2251C32.225 33.7001 32.5 34.3501 32.5 35.0001C32.5 35.6501 32.225 36.3001 31.775 36.7751ZM40.525 45.5251C40.05 45.9751 39.4 46.2501 38.75 46.2501C38.1 46.2501 37.45 45.9751 36.975 45.5251C36.525 45.0501 36.25 44.4001 36.25 43.7501C36.25 43.1001 36.525 42.4501 36.975 41.9751C37.9 41.0501 39.6 41.0501 40.525 41.9751C40.975 42.4501 41.25 43.1001 41.25 43.7501C41.25 44.4001 40.975 45.0501 40.525 45.5251ZM40.525 36.7751C40.4 36.8751 40.275 36.9751 40.15 37.0751C40 37.1751 39.85 37.2501 39.7 37.3001C39.55 37.3751 39.4 37.4251 39.25 37.4501C39.075 37.4751 38.9 37.5001 38.75 37.5001C38.1 37.5001 37.45 37.2251 36.975 36.7751C36.525 36.3001 36.25 35.6501 36.25 35.0001C36.25 34.3501 36.525 33.7001 36.975 33.2251C37.225 33.0001 37.475 32.8251 37.8 32.7001C38.25 32.5001 38.75 32.4501 39.25 32.5501C39.4 32.5751 39.55 32.6251 39.7 32.7001C39.85 32.7501 40 32.8251 40.15 32.9251C40.275 33.0251 40.4 33.1251 40.525 33.2251C40.975 33.7001 41.25 34.3501 41.25 35.0001C41.25 35.6501 40.975 36.3001 40.525 36.7751Z" fill="white"/>
</svg>
