<svg width="60" height="60" viewBox="0 0 60 60" fill="none" xmlns="http://www.w3.org/2000/svg">
<path d="M38.4746 13.0252L41.9996 20.0752C42.4746 21.0502 43.7496 21.9752 44.8246 22.1752L51.1996 23.2252C55.2746 23.9002 56.2246 26.8502 53.2996 29.8002L48.3246 34.7752C47.4996 35.6002 47.0246 37.2252 47.2996 38.4002L48.7246 44.5502C49.8496 49.4002 47.2496 51.3002 42.9746 48.7502L36.9996 45.2002C35.9246 44.5502 34.1246 44.5502 33.0496 45.2002L27.0746 48.7502C22.7996 51.2752 20.1996 49.4002 21.3246 44.5502L22.7496 38.4002C22.9746 37.2002 22.4996 35.5752 21.6746 34.7502L16.6996 29.7752C13.7746 26.8502 14.7246 23.9002 18.7996 23.2002L25.1746 22.1502C26.2496 21.9752 27.5246 21.0252 27.9996 20.0502L31.5246 13.0002C33.4496 9.2002 36.5496 9.2002 38.4746 13.0252Z" fill="white"/>
<path d="M20 14.375H5C3.975 14.375 3.125 13.525 3.125 12.5C3.125 11.475 3.975 10.625 5 10.625H20C21.025 10.625 21.875 11.475 21.875 12.5C21.875 13.525 21.025 14.375 20 14.375Z" fill="white"/>
<path d="M12.5 49.375H5C3.975 49.375 3.125 48.525 3.125 47.5C3.125 46.475 3.975 45.625 5 45.625H12.5C13.525 45.625 14.375 46.475 14.375 47.5C14.375 48.525 13.525 49.375 12.5 49.375Z" fill="white"/>
<path d="M7.5 31.875H5C3.975 31.875 3.125 31.025 3.125 30C3.125 28.975 3.975 28.125 5 28.125H7.5C8.525 28.125 9.375 28.975 9.375 30C9.375 31.025 8.525 31.875 7.5 31.875Z" fill="white"/>
</svg>
