<svg width="25" height="25" viewBox="0 0 25 25" fill="none" xmlns="http://www.w3.org/2000/svg">
<path d="M16.25 10.025L11.664 5.439C11.3827 5.15774 11.0011 4.99978 10.6032 4.99988C10.2053 4.99997 9.82381 5.15811 9.54255 5.4395C9.26129 5.7209 9.10333 6.1025 9.10342 6.50036C9.10352 6.89822 9.26166 7.27974 9.54305 7.561L14.129 12.146C14.1756 12.1925 14.2125 12.2476 14.2378 12.3084C14.263 12.3691 14.2759 12.4342 14.2759 12.5C14.2759 12.5658 14.263 12.6309 14.2378 12.6916C14.2125 12.7524 14.1756 12.8076 14.129 12.854L9.54305 17.439C9.26166 17.7203 9.10352 18.1018 9.10342 18.4997C9.10333 18.8975 9.26129 19.2791 9.54255 19.5605C9.82381 19.8419 10.2053 20 10.6032 20.0001C11.0011 20.0002 11.3827 19.8423 11.664 19.561L16.25 14.975C16.9053 14.318 17.2732 13.4279 17.2732 12.5C17.2732 11.5721 16.9053 10.682 16.25 10.025Z" fill="white"/>
</svg>
