<svg width="25" height="24" viewBox="0 0 25 24" fill="none" xmlns="http://www.w3.org/2000/svg">
<path d="M14.975 15.7501L19.561 11.1641C19.8423 10.8827 20.0002 10.5011 20.0001 10.1033C20 9.70543 19.8419 9.3239 19.5605 9.04264C19.2791 8.76138 18.8975 8.60342 18.4996 8.60352C18.1018 8.60361 17.7203 8.76175 17.439 9.04314L12.854 13.6291C12.8075 13.6757 12.7524 13.7126 12.6916 13.7378C12.6309 13.7631 12.5658 13.776 12.5 13.776C12.4342 13.776 12.3691 13.7631 12.3084 13.7378C12.2476 13.7126 12.1924 13.6757 12.146 13.6291L7.56099 9.04314C7.27973 8.76175 6.8982 8.60361 6.50035 8.60352C6.10249 8.60342 5.72089 8.76138 5.43949 9.04264C5.1581 9.3239 4.99996 9.70543 4.99987 10.1033C4.99977 10.5011 5.15773 10.8827 5.43899 11.1641L10.025 15.7501C10.682 16.4054 11.5721 16.7733 12.5 16.7733C13.4279 16.7733 14.318 16.4054 14.975 15.7501V15.7501Z" fill="white"/>
</svg>
