<svg width="25" height="24" viewBox="0 0 25 24" fill="none" xmlns="http://www.w3.org/2000/svg">
<path d="M14.975 15.75L19.561 11.164C19.8423 10.8826 20.0002 10.501 20.0001 10.1032C20 9.70531 19.8419 9.32378 19.5605 9.04252C19.2791 8.76126 18.8975 8.6033 18.4996 8.60339C18.1018 8.60349 17.7203 8.76163 17.439 9.04302L12.854 13.629C12.8075 13.6756 12.7524 13.7125 12.6916 13.7377C12.6309 13.7629 12.5658 13.7759 12.5 13.7759C12.4342 13.7759 12.3691 13.7629 12.3084 13.7377C12.2476 13.7125 12.1924 13.6756 12.146 13.629L7.56099 9.04302C7.27973 8.76163 6.8982 8.60349 6.50035 8.60339C6.10249 8.6033 5.72089 8.76126 5.43949 9.04252C5.1581 9.32378 4.99996 9.70531 4.99987 10.1032C4.99977 10.501 5.15773 10.8826 5.43899 11.164L10.025 15.75C10.682 16.4052 11.5721 16.7732 12.5 16.7732C13.4279 16.7732 14.318 16.4052 14.975 15.75Z" fill="white"/>
</svg>
