<svg width="667" height="74" viewBox="0 0 667 74" fill="none" xmlns="http://www.w3.org/2000/svg">
<path opacity="0.2" d="M206.573 18.7935C206.573 18.7935 219.455 15.7898 245.733 20.2423C272.011 24.6948 274.459 17.274 319.19 11.0193C363.921 4.7646 368.977 12.8215 368.977 12.8215C368.977 12.8215 411.84 -2.83291 438.28 0.453454C464.719 3.73982 474.863 17.5214 488.26 29.9247C488.26 29.9247 525.616 21.6911 552.893 32.2923C580.17 42.8935 552.378 48.8302 552.378 48.8302L634.981 51.8338C634.981 51.8338 696.168 65.4387 649.376 67.3469C649.376 67.3469 587.802 69.8912 525.133 73.4249C462.465 76.9586 422.596 62.8237 387.43 68.4423C352.263 74.0609 342.763 71.9761 309.013 67.1349C275.264 62.2937 229.212 75.7925 181.808 65.7567C134.404 55.7209 -17.6622 70.6686 1.69234 61.7283C21.0468 52.7879 88.6427 62.223 86.7426 53.9894C86.7426 53.9894 59.4016 45.8972 88.0952 44.6604C116.789 43.4236 75.2137 37.5929 114.985 28.4759C154.757 19.3589 158.783 20.5603 167.284 19.7122C175.786 18.8642 198.683 5.57735 205.704 11.7967C212.724 18.0161 206.573 18.7935 206.573 18.7935Z" fill="white"/>
</svg>
