<svg width="692" height="179" viewBox="0 0 692 179" fill="none" xmlns="http://www.w3.org/2000/svg">
<path d="M0.120117 52.4246C60.5637 19.6527 125.699 2.05344 191.723 0.654541C228.117 0.714354 264.481 3.25651 300.647 8.26931L386.933 18.4904C467.828 27.8428 548.848 37.2462 630.074 39.4438C673.155 40.5681 717.604 39.4437 757.243 18.4904C780.919 5.96955 807.538 22.9877 833.328 21.9145L1108.69 10.2113C1134.68 9.13813 1164.33 9.85358 1181.5 33.9754C1184.74 37.8997 1186.61 43.2427 1186.68 48.8472C1186.27 55.5931 1181.75 60.8059 1177.48 65.0987C1113.87 128.879 1031.94 159.44 950.463 171.041C868.987 182.642 786.682 176.662 704.667 175.538C571.984 173.647 436.855 183.97 308.774 141.246C276.433 130.463 244.63 116.307 211.459 110.583C180.445 105.166 148.85 107.21 117.628 103.837C73.5519 98.4196 39.3446 77.6707 0.120117 52.4246Z" fill="#8489B3"/>
</svg>
