<svg width="1375" height="191" viewBox="0 0 1375 191" fill="none" xmlns="http://www.w3.org/2000/svg">
<path d="M-101.472 3.62445C-84.2459 -3.86549 -66.8136 13.5769 -48.7616 16.9627C-37.98 19.0148 -27.0331 15.9367 -16.3754 13.0638C27.7012 1.31589 73.9671 -6.43056 117.548 7.93371C150.389 18.7582 181.288 41.9463 215.285 41.6898C238.418 41.6898 261.716 30.2497 284.271 36.5597C303.479 42.0489 319.011 59.4912 337.435 68.1098C363.873 80.4733 394.441 73.9068 420.053 88.1171C433.726 95.6584 445.169 108.638 458.883 116.076C485.858 130.697 516.922 121.976 546.293 123.976C572.524 125.772 597.764 136.237 622.673 146.6L727.969 190.463C773.079 209.29 814.718 128.029 862.141 134.032C887.752 137.161 909.109 159.22 933.481 169.429C964.504 182.511 1000.57 176.509 1028.49 197.799C1045.63 210.829 1067.65 208.059 1087.03 201.595C1106.4 195.131 1125.48 185.025 1145.56 184.563C1176.79 183.845 1208.06 206.263 1237.93 195.131C1251.29 190.239 1265.31 188.682 1279.16 190.548C1293.02 192.415 1306.43 197.669 1318.64 206.007L1325.05 210.419C1346.82 225.501 1371.23 236.839 1374.04 267.568C1325.63 314.303 1258.99 313.226 1197.82 318.869C1064.76 330.668 936.207 382.841 804.184 406.696C729.828 420.137 654.522 424.498 579.464 428.858C540.055 431.167 500.316 433.424 461.403 425.472C427.654 418.598 395.309 404.131 362.84 390.434C233.897 335.858 102.175 291.985 -31.4532 259.103C-52.8098 253.973 -76.3146 247.253 -88.9964 225.296C-96.0189 213.138 -98.5801 198.004 -100.646 183.281C-108.081 128.85 -102.174 58.5165 -101.472 3.62445Z" fill="#2A0AA8"/>
</svg>
