<svg width="1271" height="27" viewBox="0 0 1271 27" fill="none" xmlns="http://www.w3.org/2000/svg">
<path d="M-80.6425 0.890869C14.5949 72.991 129.666 90.8615 241.053 95.4965C279.355 97.093 319.189 97.7625 353.474 119.084C385.731 139.22 414.882 162.756 450.037 172.901C468.215 178.051 486.889 181.141 504.612 188.351C547.924 206.17 582.541 248.555 625.729 266.94C651.236 277.755 678.689 279.764 704.403 289.909C730.117 300.055 754.092 318.852 780.179 330.182C809.992 343.16 841.918 346.25 873.387 349.186C941.668 355.623 1006.72 388.481 1069.08 423.604C1099.8 440.908 1127.63 466.658 1160.18 477.885C1182.7 485.661 1206.68 486.176 1228.66 496.116C1250.65 506.055 1271.4 529.9 1270.32 558.946C1244.74 546.491 1217.65 539.525 1190.2 538.346C1159.18 537.007 1128.33 543.187 1097.57 548.646C982.869 568.525 866.638 576.765 751.069 567.186C633.72 557.504 516.993 529.436 399.478 534.844C335.586 537.728 270.576 550.294 208.465 531.702C171.985 520.733 138.072 499.36 102.255 485.764C47.4311 465.164 -10.6637 463.104 -67.9303 461.302C-87.7646 460.684 -92.1123 421.492 -92.4436 396.772C-93.1475 345.272 -93.8101 293.154 -85.984 242.272C-82.2159 218.067 -76.5431 194.274 -73.893 169.863C-67.7748 113.501 -70.0628 56.2203 -80.6425 0.890869V0.890869Z" fill="#0C3396"/>
</svg>
