<svg width="60" height="60" viewBox="0 0 60 60" fill="none" xmlns="http://www.w3.org/2000/svg">
<path d="M38.4746 13.0251L41.9996 20.0751C42.4746 21.0501 43.7496 21.9751 44.8246 22.1751L51.1996 23.2251C55.2746 23.9001 56.2246 26.8501 53.2996 29.8001L48.3246 34.7751C47.4996 35.6001 47.0246 37.2251 47.2996 38.4001L48.7246 44.5501C49.8496 49.4001 47.2496 51.3001 42.9746 48.7501L36.9996 45.2001C35.9246 44.5501 34.1246 44.5501 33.0496 45.2001L27.0746 48.7501C22.7996 51.2751 20.1996 49.4001 21.3246 44.5501L22.7496 38.4001C22.9746 37.2001 22.4996 35.5751 21.6746 34.7501L16.6996 29.7751C13.7746 26.8501 14.7246 23.9001 18.7996 23.2001L25.1746 22.1501C26.2496 21.9751 27.5246 21.0251 27.9996 20.0501L31.5246 13.0001C33.4496 9.20008 36.5496 9.20008 38.4746 13.0251Z" fill="white"/>
<path d="M20 14.375H5C3.975 14.375 3.125 13.525 3.125 12.5C3.125 11.475 3.975 10.625 5 10.625H20C21.025 10.625 21.875 11.475 21.875 12.5C21.875 13.525 21.025 14.375 20 14.375Z" fill="white"/>
<path d="M12.5 49.375H5C3.975 49.375 3.125 48.525 3.125 47.5C3.125 46.475 3.975 45.625 5 45.625H12.5C13.525 45.625 14.375 46.475 14.375 47.5C14.375 48.525 13.525 49.375 12.5 49.375Z" fill="white"/>
<path d="M7.5 31.875H5C3.975 31.875 3.125 31.025 3.125 30C3.125 28.975 3.975 28.125 5 28.125H7.5C8.525 28.125 9.375 28.975 9.375 30C9.375 31.025 8.525 31.875 7.5 31.875Z" fill="white"/>
</svg>
