<svg width="65" height="65" viewBox="0 0 65 65" fill="none" xmlns="http://www.w3.org/2000/svg">
<path d="M45.3646 9.64163V5.41663C45.3646 4.30621 44.4438 3.38538 43.3334 3.38538C42.223 3.38538 41.3021 4.30621 41.3021 5.41663V9.47913H23.698V5.41663C23.698 4.30621 22.7771 3.38538 21.6667 3.38538C20.5563 3.38538 19.6355 4.30621 19.6355 5.41663V9.64163C12.323 10.3187 8.77505 14.6791 8.23338 21.152C8.17922 21.9375 8.82922 22.5875 9.58755 22.5875H55.4125C56.198 22.5875 56.848 21.9104 56.7667 21.152C56.225 14.6791 52.6771 10.3187 45.3646 9.64163Z" fill="url(#paint0_linear_32_3807)"/>
<path d="M54.1667 26.65H10.8333C9.34375 26.65 8.125 27.8688 8.125 29.3584V46.0417C8.125 54.1667 12.1875 59.5834 21.6667 59.5834H43.3333C52.8125 59.5834 56.875 54.1667 56.875 46.0417V29.3584C56.875 27.8688 55.6562 26.65 54.1667 26.65ZM24.9437 49.3188C24.8083 49.4271 24.6729 49.5625 24.5375 49.6438C24.375 49.7521 24.2125 49.8334 24.05 49.8875C23.8875 49.9688 23.725 50.0229 23.5625 50.05C23.3729 50.0771 23.2104 50.1042 23.0208 50.1042C22.6687 50.1042 22.3167 50.0229 21.9917 49.8875C21.6396 49.7521 21.3687 49.5625 21.0979 49.3188C20.6104 48.8042 20.3125 48.1 20.3125 47.3959C20.3125 46.6917 20.6104 45.9875 21.0979 45.4729C21.3687 45.2292 21.6396 45.0396 21.9917 44.9042C22.4792 44.6875 23.0208 44.6334 23.5625 44.7417C23.725 44.7688 23.8875 44.8229 24.05 44.9042C24.2125 44.9584 24.375 45.0396 24.5375 45.1479C24.6729 45.2563 24.8083 45.3646 24.9437 45.4729C25.4312 45.9875 25.7292 46.6917 25.7292 47.3959C25.7292 48.1 25.4312 48.8042 24.9437 49.3188ZM24.9437 39.8396C24.4292 40.3271 23.725 40.625 23.0208 40.625C22.3167 40.625 21.6125 40.3271 21.0979 39.8396C20.6104 39.325 20.3125 38.6209 20.3125 37.9167C20.3125 37.2125 20.6104 36.5084 21.0979 35.9938C21.8562 35.2354 23.0479 34.9917 24.05 35.425C24.4021 35.5604 24.7 35.75 24.9437 35.9938C25.4312 36.5084 25.7292 37.2125 25.7292 37.9167C25.7292 38.6209 25.4312 39.325 24.9437 39.8396ZM34.4229 49.3188C33.9083 49.8063 33.2042 50.1042 32.5 50.1042C31.7958 50.1042 31.0917 49.8063 30.5771 49.3188C30.0896 48.8042 29.7917 48.1 29.7917 47.3959C29.7917 46.6917 30.0896 45.9875 30.5771 45.4729C31.5792 44.4709 33.4208 44.4709 34.4229 45.4729C34.9104 45.9875 35.2083 46.6917 35.2083 47.3959C35.2083 48.1 34.9104 48.8042 34.4229 49.3188ZM34.4229 39.8396C34.2875 39.9479 34.1521 40.0563 34.0167 40.1646C33.8542 40.2729 33.6917 40.3542 33.5292 40.4084C33.3667 40.4896 33.2042 40.5438 33.0417 40.5709C32.8521 40.5979 32.6896 40.625 32.5 40.625C31.7958 40.625 31.0917 40.3271 30.5771 39.8396C30.0896 39.325 29.7917 38.6209 29.7917 37.9167C29.7917 37.2125 30.0896 36.5084 30.5771 35.9938C30.8208 35.75 31.1187 35.5604 31.4708 35.425C32.4729 34.9917 33.6646 35.2354 34.4229 35.9938C34.9104 36.5084 35.2083 37.2125 35.2083 37.9167C35.2083 38.6209 34.9104 39.325 34.4229 39.8396ZM43.9021 49.3188C43.3875 49.8063 42.6833 50.1042 41.9792 50.1042C41.275 50.1042 40.5708 49.8063 40.0562 49.3188C39.5687 48.8042 39.2708 48.1 39.2708 47.3959C39.2708 46.6917 39.5687 45.9875 40.0562 45.4729C41.0583 44.4709 42.9 44.4709 43.9021 45.4729C44.3896 45.9875 44.6875 46.6917 44.6875 47.3959C44.6875 48.1 44.3896 48.8042 43.9021 49.3188ZM43.9021 39.8396C43.7667 39.9479 43.6312 40.0563 43.4958 40.1646C43.3333 40.2729 43.1708 40.3542 43.0083 40.4084C42.8458 40.4896 42.6833 40.5438 42.5208 40.5709C42.3312 40.5979 42.1417 40.625 41.9792 40.625C41.275 40.625 40.5708 40.3271 40.0562 39.8396C39.5687 39.325 39.2708 38.6209 39.2708 37.9167C39.2708 37.2125 39.5687 36.5084 40.0562 35.9938C40.3271 35.75 40.5979 35.5604 40.95 35.425C41.4375 35.2084 41.9792 35.1542 42.5208 35.2625C42.6833 35.2896 42.8458 35.3438 43.0083 35.425C43.1708 35.4792 43.3333 35.5604 43.4958 35.6688C43.6312 35.7771 43.7667 35.8854 43.9021 35.9938C44.3896 36.5084 44.6875 37.2125 44.6875 37.9167C44.6875 38.6209 44.3896 39.325 43.9021 39.8396Z" fill="url(#paint1_linear_32_3807)"/>
<defs>
<linearGradient id="paint0_linear_32_3807" x1="14.8105" y1="3.38538" x2="43.5068" y2="33.8787" gradientUnits="userSpaceOnUse">
<stop stop-color="#C847F4"/>
<stop offset="1" stop-color="#6E54F7"/>
</linearGradient>
<linearGradient id="paint1_linear_32_3807" x1="14.7333" y1="26.65" x2="58.9676" y2="54.173" gradientUnits="userSpaceOnUse">
<stop stop-color="#C847F4"/>
<stop offset="1" stop-color="#6E54F7"/>
</linearGradient>
</defs>
</svg>
