<svg width="60" height="60" viewBox="0 0 60 60" fill="none" xmlns="http://www.w3.org/2000/svg">
<path d="M22.5 5C15.95 5 10.625 10.325 10.625 16.875C10.625 23.3 15.65 28.5 22.2 28.725C22.4 28.7 22.6 28.7 22.75 28.725C22.8 28.725 22.825 28.725 22.875 28.725C22.9 28.725 22.9 28.725 22.925 28.725C29.325 28.5 34.35 23.3 34.375 16.875C34.375 10.325 29.05 5 22.5 5Z" fill="white"/>
<path d="M35.1999 35.375C28.2249 30.725 16.8499 30.725 9.8249 35.375C6.6499 37.5 4.8999 40.375 4.8999 43.45C4.8999 46.525 6.6499 49.375 9.7999 51.475C13.2999 53.825 17.8999 55 22.4999 55C27.0999 55 31.6999 53.825 35.1999 51.475C38.3499 49.35 40.0999 46.5 40.0999 43.4C40.0749 40.325 38.3499 37.475 35.1999 35.375Z" fill="white"/>
<path d="M49.9749 18.35C50.3749 23.2 46.9249 27.45 42.1499 28.025C42.1249 28.025 42.1249 28.025 42.0999 28.025H42.0249C41.8749 28.025 41.7249 28.025 41.5999 28.075C39.1749 28.2 36.9499 27.425 35.2749 26C37.8499 23.7 39.3249 20.25 39.0249 16.5C38.8499 14.475 38.1499 12.625 37.0999 11.05C38.0499 10.575 39.1499 10.275 40.2749 10.175C45.1749 9.75001 49.5499 13.4 49.9749 18.35Z" fill="white"/>
<path d="M54.9751 41.475C54.7751 43.9 53.2251 46 50.6251 47.425C48.1251 48.8 44.9751 49.45 41.8501 49.375C43.6501 47.75 44.7001 45.725 44.9001 43.575C45.1501 40.475 43.6751 37.5 40.7251 35.125C39.0501 33.8 37.1001 32.75 34.9751 31.975C40.5001 30.375 47.4501 31.45 51.7251 34.9C54.0251 36.75 55.2001 39.075 54.9751 41.475Z" fill="white"/>
</svg>
