<svg width="33" height="33" viewBox="0 0 33 33" fill="none" xmlns="http://www.w3.org/2000/svg">
<path d="M22.2613 2.75H10.7387C5.73375 2.75 2.75 5.73375 2.75 10.7387V22.2613C2.75 26.125 4.52375 28.7787 7.645 29.7825C8.5525 30.0987 9.5975 30.25 10.7387 30.25H22.2613C23.4025 30.25 24.4475 30.0987 25.355 29.7825C28.4763 28.7787 30.25 26.125 30.25 22.2613V10.7387C30.25 5.73375 27.2663 2.75 22.2613 2.75ZM28.1875 22.2613C28.1875 25.2038 27.0325 27.06 24.7087 27.83C23.375 25.2038 20.2125 23.3337 16.5 23.3337C12.7875 23.3337 9.63875 25.19 8.29125 27.83H8.2775C5.98125 27.0875 4.8125 25.2175 4.8125 22.275V10.7387C4.8125 6.86125 6.86125 4.8125 10.7387 4.8125H22.2613C26.1388 4.8125 28.1875 6.86125 28.1875 10.7387V22.2613Z" fill="white"/>
<path d="M16.5 11C13.7775 11 11.5775 13.2 11.5775 15.9225C11.5775 18.645 13.7775 20.8588 16.5 20.8588C19.2225 20.8588 21.4225 18.645 21.4225 15.9225C21.4225 13.2 19.2225 11 16.5 11Z" fill="white"/>
</svg>
