<svg width="18" height="18" viewBox="0 0 18 18" fill="none" xmlns="http://www.w3.org/2000/svg">
<g clip-path="url(#clip0_32_4721)">
<path d="M0.879 14.339C0.316352 14.9015 0.000169912 15.6644 0 16.46L0 17.9997H1.53975C2.33533 17.9996 3.09827 17.6834 3.66075 17.1207L13.668 7.1135L10.8863 4.33176L0.879 14.339Z" fill="white"/>
<path d="M17.3586 0.641366C17.176 0.458543 16.9591 0.313508 16.7204 0.214554C16.4817 0.1156 16.2258 0.0646667 15.9674 0.0646667C15.709 0.0646667 15.4531 0.1156 15.2144 0.214554C14.9756 0.313508 14.7588 0.458543 14.5761 0.641366L11.9466 3.27162L14.7284 6.05337L17.3586 3.42387C17.5415 3.24123 17.6865 3.02436 17.7854 2.78564C17.8844 2.54692 17.9353 2.29103 17.9353 2.03262C17.9353 1.7742 17.8844 1.51832 17.7854 1.2796C17.6865 1.04088 17.5415 0.823999 17.3586 0.641366Z" fill="white"/>
</g>
<defs>
<clipPath id="clip0_32_4721">
<rect width="18" height="18" fill="white"/>
</clipPath>
</defs>
</svg>
