<svg width="25" height="24" viewBox="0 0 25 24" fill="none" xmlns="http://www.w3.org/2000/svg">
<path d="M14.975 15.75L19.561 11.164C19.8423 10.8827 20.0002 10.5011 20.0001 10.1032C20 9.70534 19.8419 9.32381 19.5605 9.04255C19.2791 8.76129 18.8975 8.60333 18.4996 8.60342C18.1018 8.60352 17.7203 8.76166 17.439 9.04305L12.854 13.629C12.8075 13.6756 12.7524 13.7125 12.6916 13.7378C12.6309 13.763 12.5658 13.7759 12.5 13.7759C12.4342 13.7759 12.3691 13.763 12.3084 13.7378C12.2476 13.7125 12.1924 13.6756 12.146 13.629L7.56099 9.04305C7.27973 8.76166 6.8982 8.60352 6.50035 8.60342C6.10249 8.60333 5.72089 8.76129 5.43949 9.04255C5.1581 9.32381 4.99996 9.70534 4.99987 10.1032C4.99977 10.5011 5.15773 10.8827 5.43899 11.164L10.025 15.75C10.682 16.4053 11.5721 16.7732 12.5 16.7732C13.4279 16.7732 14.318 16.4053 14.975 15.75Z" fill="white"/>
</svg>
