<svg width="23" height="24" viewBox="0 0 23 24" fill="none" xmlns="http://www.w3.org/2000/svg">
<path d="M21.9756 11.8237C21.9731 11.2502 21.6533 10.7288 21.1442 10.461L9.2798 4.20942C8.74824 3.92112 8.1284 3.9685 7.63832 4.31585C7.13925 4.66905 6.89503 5.49339 7.04656 6.08305L8.22386 10.6602C8.34471 11.1296 8.77233 11.4541 9.25759 11.4435L15.797 11.3091C16.1318 11.2965 16.4081 11.5634 16.4073 11.8984C16.412 12.2276 16.1491 12.4999 15.8143 12.5124L9.26854 12.6419C8.78327 12.6513 8.3652 12.9921 8.25789 13.4661L7.20257 18.1005C7.07418 18.6482 7.24091 19.1899 7.63239 19.5679C7.67845 19.6124 7.73026 19.6625 7.78192 19.7011C8.28691 20.0769 8.94034 20.1145 9.49231 19.8079L21.1723 13.2086C21.6736 12.9314 21.9782 12.3971 21.9756 11.8237Z" fill="url(#paint0_linear_32_4887)"/>
<defs>
<linearGradient id="paint0_linear_32_4887" x1="12.6747" y1="2.19463" x2="19.9886" y2="19.2583" gradientUnits="userSpaceOnUse">
<stop stop-color="#C847F4"/>
<stop offset="1" stop-color="#6E54F7"/>
</linearGradient>
</defs>
</svg>
