<svg width="197" height="55" viewBox="0 0 197 55" fill="none" xmlns="http://www.w3.org/2000/svg">
<path fill-rule="evenodd" clip-rule="evenodd" d="M21.9547 0.858151C13.0746 3.46436 8.55512 10.7232 7.4813 24.1014C6.82243 32.3217 5.70636 34.9119 2.19192 36.3805C0.0511011 37.276 0 37.3925 0 41.4283V45.5602L2.4522 45.1862C6.23918 44.6085 9.66709 42.6581 12.0668 39.7156C14.8924 36.2505 15.5894 33.8461 16.3396 24.9776C17.1409 15.5078 18.9765 11.586 23.5899 9.48639C26.0101 8.38472 27.411 8.15798 30.0056 8.44685C37.1905 9.24684 39.9357 13.3377 40.9216 24.7163C41.2745 28.7861 41.9239 33.2465 42.3647 34.6288C43.9387 39.569 51.0943 45.3361 55.7009 45.3783C57.1304 45.3918 57.234 45.1196 57.234 41.3476C57.234 37.3663 57.1972 37.2868 54.8799 36.2479C51.4772 34.7223 50.556 32.4671 49.8126 23.8401C48.8799 13.0104 46.32 7.21131 40.7758 3.36637C36.1426 0.152315 28.0372 -0.927576 21.9547 0.858151ZM63.3662 23.3245V46.0912L67.8011 45.9023C70.2404 45.7979 72.2334 45.4962 72.23 45.2323C72.2265 44.9684 72.2238 34.8081 72.2238 22.6545V0.557114H67.795H63.3662V23.3245ZM88.5253 15.609C84.8112 16.7222 80.7135 20.2693 78.9672 23.8836C77.3994 27.1297 77.274 33.6437 78.7178 36.8917C82.1989 44.7231 90.4317 48.3452 98.8608 45.7537C101.404 44.9716 102.539 44.8666 102.877 45.3815C103.168 45.8229 104.976 46.0253 107.575 45.9061L111.801 45.7127L111.8 30.6608V15.609L107.343 15.4194C103.752 15.2669 102.885 15.4162 102.885 16.1873C102.885 17.0238 102.598 17.0322 100.615 16.2533C97.0034 14.8346 91.9988 14.5682 88.5253 15.609ZM155.152 15.86C153.155 16.8176 152.624 16.8849 152.624 16.1803C152.624 15.5097 151.525 15.2887 148.195 15.2887H143.766V30.6608V46.0329H148.195H152.624V35.8419V25.6508L154.72 23.9925C156.938 22.2382 158.932 21.9416 161.745 22.9472C164.902 24.0752 165.57 26.479 165.57 36.7136V46.0329H170.339H175.109V35.5114V24.9892L176.904 23.662C179.058 22.0691 182.392 21.9461 184.568 23.3789C187.366 25.221 188.054 27.9835 188.054 37.3656V46.0329H192.527H197L196.785 34.9842C196.597 25.262 196.4 23.6281 195.148 21.3735C191.089 14.0673 180.292 12.4647 172.244 17.9737C171.278 18.6341 170.818 18.5361 169.518 17.3915C166.15 14.4253 159.602 13.7278 155.152 15.86ZM118.556 30.6608V46.0912L123.155 45.9023L127.754 45.7127L127.944 36.5138C128.121 27.9041 128.231 27.238 129.647 26.1261C131.133 24.9597 133.4 24.1155 137.123 23.3405C138.912 22.9677 138.997 22.7769 138.997 19.1196V15.2887H136.727C135.48 15.2887 133.042 15.9632 131.31 16.7869L128.161 18.2856L127.958 16.947C127.778 15.7633 127.224 15.5872 123.155 15.4194L118.556 15.2304V30.6608ZM100.815 24.013C102.907 25.6681 102.935 25.7661 102.74 30.8754C102.548 35.9757 102.507 36.0821 100.229 37.5232C94.31 41.2669 86.5323 37.3701 86.5323 30.6608C86.5323 23.7498 95.3143 19.6621 100.815 24.013ZM18.9308 45.7441C18.4178 46.2264 19.3022 49.2047 20.4898 50.9924C21.7455 52.8831 26.0115 55 28.5666 55C33.2175 55 37.8439 51.4554 38.2875 47.5522L38.4967 45.7127L28.9188 45.5359C23.6513 45.4385 19.1563 45.5321 18.9308 45.7441Z" fill="white"/>
</svg>
