<svg width="100" height="99" viewBox="0 0 100 99" fill="none" xmlns="http://www.w3.org/2000/svg">
<path d="M100 50C100 40.549 97.3214 31.2915 92.2747 23.3007C87.228 15.31 80.0199 8.91316 71.486 4.85187C62.9521 0.79059 53.4418 -0.768843 44.0578 0.354352C34.6738 1.47755 25.8002 5.23737 18.4659 11.198C11.1315 17.1586 5.63666 25.0758 2.61837 34.0319C-0.399932 42.988 -0.818084 52.6161 1.41238 61.8002C3.64285 70.9842 8.43059 79.348 15.2206 85.922C22.0106 92.496 30.5247 97.011 39.7761 98.9436L40.8595 93.7571C32.5885 92.0294 24.9766 87.9928 18.9061 82.1155C12.8356 76.2381 8.55521 68.7606 6.5611 60.5497C4.56699 52.3389 4.94083 43.731 7.63929 35.724C10.3377 27.717 15.2503 20.6387 21.8075 15.3097C28.3646 9.98076 36.2979 6.61936 44.6875 5.61519C53.0771 4.61102 61.5796 6.0052 69.2091 9.63612C76.8387 13.267 83.283 18.986 87.7949 26.13C92.3068 33.274 94.7016 41.5505 94.7016 50H100Z" fill="url('#paint0_linear_32_4561')"></path>
<defs>
<linearGradient id="paint0_linear_32_4561" x1="13.5556" y1="1.41273e-06" x2="120.522" y2="44.9618" gradientUnits="userSpaceOnUse">
<stop stop-color="#C847F4"></stop>
<stop offset="1" stop-color="#6E54F7"></stop>
</linearGradient>
</defs>
</svg>
