<svg width="60" height="60" viewBox="0 0 60 60" fill="none" xmlns="http://www.w3.org/2000/svg">
<path d="M41.8751 8.9V5C41.8751 3.975 41.0251 3.125 40.0001 3.125C38.9751 3.125 38.1251 3.975 38.1251 5V8.75H21.8751V5C21.8751 3.975 21.0251 3.125 20.0001 3.125C18.9751 3.125 18.1251 3.975 18.1251 5V8.9C11.3751 9.525 8.10008 13.55 7.60008 19.525C7.55008 20.25 8.15008 20.85 8.85008 20.85H51.1501C51.8751 20.85 52.4751 20.225 52.4001 19.525C51.9001 13.55 48.6251 9.525 41.8751 8.9Z" fill="white"></path>
<path d="M50 24.6H10C8.625 24.6 7.5 25.725 7.5 27.1V42.5C7.5 50 11.25 55 20 55H40C48.75 55 52.5 50 52.5 42.5V27.1C52.5 25.725 51.375 24.6 50 24.6ZM23.025 45.525C22.9 45.625 22.775 45.75 22.65 45.825C22.5 45.925 22.35 46 22.2 46.05C22.05 46.125 21.9 46.175 21.75 46.2C21.575 46.225 21.425 46.25 21.25 46.25C20.925 46.25 20.6 46.175 20.3 46.05C19.975 45.925 19.725 45.75 19.475 45.525C19.025 45.05 18.75 44.4 18.75 43.75C18.75 43.1 19.025 42.45 19.475 41.975C19.725 41.75 19.975 41.575 20.3 41.45C20.75 41.25 21.25 41.2 21.75 41.3C21.9 41.325 22.05 41.375 22.2 41.45C22.35 41.5 22.5 41.575 22.65 41.675C22.775 41.775 22.9 41.875 23.025 41.975C23.475 42.45 23.75 43.1 23.75 43.75C23.75 44.4 23.475 45.05 23.025 45.525ZM23.025 36.775C22.55 37.225 21.9 37.5 21.25 37.5C20.6 37.5 19.95 37.225 19.475 36.775C19.025 36.3 18.75 35.65 18.75 35C18.75 34.35 19.025 33.7 19.475 33.225C20.175 32.525 21.275 32.3 22.2 32.7C22.525 32.825 22.8 33 23.025 33.225C23.475 33.7 23.75 34.35 23.75 35C23.75 35.65 23.475 36.3 23.025 36.775ZM31.775 45.525C31.3 45.975 30.65 46.25 30 46.25C29.35 46.25 28.7 45.975 28.225 45.525C27.775 45.05 27.5 44.4 27.5 43.75C27.5 43.1 27.775 42.45 28.225 41.975C29.15 41.05 30.85 41.05 31.775 41.975C32.225 42.45 32.5 43.1 32.5 43.75C32.5 44.4 32.225 45.05 31.775 45.525ZM31.775 36.775C31.65 36.875 31.525 36.975 31.4 37.075C31.25 37.175 31.1 37.25 30.95 37.3C30.8 37.375 30.65 37.425 30.5 37.45C30.325 37.475 30.175 37.5 30 37.5C29.35 37.5 28.7 37.225 28.225 36.775C27.775 36.3 27.5 35.65 27.5 35C27.5 34.35 27.775 33.7 28.225 33.225C28.45 33 28.725 32.825 29.05 32.7C29.975 32.3 31.075 32.525 31.775 33.225C32.225 33.7 32.5 34.35 32.5 35C32.5 35.65 32.225 36.3 31.775 36.775ZM40.525 45.525C40.05 45.975 39.4 46.25 38.75 46.25C38.1 46.25 37.45 45.975 36.975 45.525C36.525 45.05 36.25 44.4 36.25 43.75C36.25 43.1 36.525 42.45 36.975 41.975C37.9 41.05 39.6 41.05 40.525 41.975C40.975 42.45 41.25 43.1 41.25 43.75C41.25 44.4 40.975 45.05 40.525 45.525ZM40.525 36.775C40.4 36.875 40.275 36.975 40.15 37.075C40 37.175 39.85 37.25 39.7 37.3C39.55 37.375 39.4 37.425 39.25 37.45C39.075 37.475 38.9 37.5 38.75 37.5C38.1 37.5 37.45 37.225 36.975 36.775C36.525 36.3 36.25 35.65 36.25 35C36.25 34.35 36.525 33.7 36.975 33.225C37.225 33 37.475 32.825 37.8 32.7C38.25 32.5 38.75 32.45 39.25 32.55C39.4 32.575 39.55 32.625 39.7 32.7C39.85 32.75 40 32.825 40.15 32.925C40.275 33.025 40.4 33.125 40.525 33.225C40.975 33.7 41.25 34.35 41.25 35C41.25 35.65 40.975 36.3 40.525 36.775Z" fill="white"></path>
</svg>
