<svg width="65" height="65" viewBox="0 0 65 65" fill="none" xmlns="http://www.w3.org/2000/svg">
<path d="M24.375 5.41675C17.2792 5.41675 11.5104 11.1855 11.5104 18.2813C11.5104 25.2417 16.9542 30.8751 24.05 31.1188C24.2667 31.0917 24.4834 31.0917 24.6459 31.1188C24.7 31.1188 24.7271 31.1188 24.7813 31.1188C24.8084 31.1188 24.8084 31.1188 24.8354 31.1188C31.7688 30.8751 37.2125 25.2417 37.2396 18.2813C37.2396 11.1855 31.4709 5.41675 24.375 5.41675Z" fill="url('#paint0_linear_32_4960')"></path>
<path d="M38.1333 38.3228C30.5771 33.2853 18.2542 33.2853 10.6438 38.3228C7.20418 40.6249 5.30835 43.7395 5.30835 47.0707C5.30835 50.402 7.20418 53.4895 10.6167 55.7645C14.4083 58.3103 19.3917 59.5832 24.375 59.5832C29.3583 59.5832 34.3417 58.3103 38.1333 55.7645C41.5458 53.4624 43.4417 50.3749 43.4417 47.0166C43.4146 43.6853 41.5458 40.5978 38.1333 38.3228Z" fill="url('#paint1_linear_32_4960')"></path>
<path d="M54.1396 19.8793C54.5729 25.1334 50.8354 29.7376 45.6625 30.3605C45.6354 30.3605 45.6354 30.3605 45.6084 30.3605H45.5271C45.3646 30.3605 45.2021 30.3605 45.0667 30.4147C42.4396 30.5501 40.0292 29.7105 38.2146 28.1668C41.0042 25.6751 42.6021 21.9376 42.2771 17.8751C42.0875 15.6814 41.3292 13.6772 40.1917 11.9709C41.2209 11.4564 42.4125 11.1314 43.6313 11.023C48.9396 10.5626 53.6792 14.5168 54.1396 19.8793Z" fill="url('#paint2_linear_32_4960')"></path>
<path d="M59.5563 44.9312C59.3396 47.5583 57.6604 49.8333 54.8438 51.377C52.1354 52.8666 48.7229 53.5708 45.3375 53.4895C47.2875 51.7291 48.425 49.5353 48.6417 47.2062C48.9125 43.8478 47.3146 40.6249 44.1188 38.052C42.3042 36.6166 40.1917 35.4791 37.8896 34.6395C43.875 32.9062 51.4042 34.0708 56.0354 37.8083C58.5271 39.8124 59.8 42.3312 59.5563 44.9312Z" fill="url('#paint3_linear_32_4960')"></path>
<defs>
<linearGradient id="paint0_linear_32_4960" x1="14.9982" y1="5.41675" x2="42.511" y2="16.9936" gradientUnits="userSpaceOnUse">
<stop stop-color="#C847F4"></stop>
<stop offset="1" stop-color="#6E54F7"></stop>
</linearGradient>
<linearGradient id="paint1_linear_32_4960" x1="10.4775" y1="34.5447" x2="44.5222" y2="56.339" gradientUnits="userSpaceOnUse">
<stop stop-color="#C847F4"></stop>
<stop offset="1" stop-color="#6E54F7"></stop>
</linearGradient>
<linearGradient id="paint2_linear_32_4960" x1="40.378" y1="10.9866" x2="58.3281" y2="17.1799" gradientUnits="userSpaceOnUse">
<stop stop-color="#C847F4"></stop>
<stop offset="1" stop-color="#6E54F7"></stop>
</linearGradient>
<linearGradient id="paint3_linear_32_4960" x1="40.8306" y1="33.853" x2="63.2961" y2="44.2833" gradientUnits="userSpaceOnUse">
<stop stop-color="#C847F4"></stop>
<stop offset="1" stop-color="#6E54F7"></stop>
</linearGradient>
</defs>
</svg>
