<svg width="65" height="65" fill="none" xmlns="http://www.w3.org/2000/svg"><path d="M24.375 5.417c-7.096 0-12.865 5.768-12.865 12.864 0 6.96 5.444 12.594 12.54 12.838.217-.027.433-.027.596 0h.189c6.934-.244 12.377-5.877 12.405-12.838 0-7.095-5.77-12.864-12.865-12.864Z" fill="url('#paint0_linear_32_4960')"/><path d="M38.133 38.323c-7.556-5.038-19.879-5.038-27.49 0-3.439 2.302-5.335 5.416-5.335 8.748 0 3.331 1.896 6.419 5.309 8.694 3.791 2.545 8.775 3.818 13.758 3.818 4.983 0 9.967-1.273 13.758-3.819 3.413-2.302 5.309-5.39 5.309-8.747-.027-3.332-1.896-6.42-5.309-8.694Z" fill="url('#paint1_linear_32_4960')"/><path d="M54.14 19.88c.433 5.253-3.305 9.858-8.477 10.48h-.135c-.163 0-.326 0-.461.055-2.627.135-5.038-.704-6.852-2.248 2.79-2.492 4.387-6.23 4.062-10.292a12.57 12.57 0 0 0-2.085-5.904c1.029-.515 2.22-.84 3.44-.948 5.308-.46 10.047 3.494 10.508 8.856Z" fill="url('#paint2_linear_32_4960')"/><path d="M59.556 44.931c-.216 2.627-1.896 4.902-4.712 6.446-2.709 1.49-6.121 2.194-9.507 2.112 1.95-1.76 3.088-3.954 3.305-6.283.27-3.358-1.327-6.581-4.523-9.154-1.815-1.435-3.927-2.573-6.23-3.413 5.986-1.733 13.515-.568 18.146 3.17 2.492 2.003 3.765 4.522 3.521 7.122Z" fill="url('#paint3_linear_32_4960')"/><defs><linearGradient id="paint0_linear_32_4960" x1="14.998" y1="5.417" x2="42.511" y2="16.994" gradientUnits="userSpaceOnUse"><stop stop-color="#C847F4"/><stop offset="1" stop-color="#6E54F7"/></linearGradient><linearGradient id="paint1_linear_32_4960" x1="10.477" y1="34.545" x2="44.522" y2="56.339" gradientUnits="userSpaceOnUse"><stop stop-color="#C847F4"/><stop offset="1" stop-color="#6E54F7"/></linearGradient><linearGradient id="paint2_linear_32_4960" x1="40.378" y1="10.987" x2="58.328" y2="17.18" gradientUnits="userSpaceOnUse"><stop stop-color="#C847F4"/><stop offset="1" stop-color="#6E54F7"/></linearGradient><linearGradient id="paint3_linear_32_4960" x1="40.831" y1="33.853" x2="63.296" y2="44.283" gradientUnits="userSpaceOnUse"><stop stop-color="#C847F4"/><stop offset="1" stop-color="#6E54F7"/></linearGradient></defs></svg>